<?xml version="1.0" standalone="no"?>
<!DOCTYPE svg PUBLIC "-//W3C//DTD SVG 20010904//EN"
 "http://www.w3.org/TR/2001/REC-SVG-20010904/DTD/svg10.dtd">
<svg version="1.0" xmlns="http://www.w3.org/2000/svg"
 width="500.000000pt" height="500.000000pt" viewBox="0 0 500.000000 500.000000"
 preserveAspectRatio="xMidYMid meet">

<g transform="translate(0.000000,500.000000) scale(0.100000,-0.100000)"
fill="#000000" stroke="none">
<path d="M2395 4395 c-244 -131 -664 -685 -1082 -1430 -506 -900 -798 -1702
-722 -1980 24 -86 153 -172 355 -234 752 -231 2429 -223 3144 15 260 87 343
180 326 370 -65 777 -1247 2915 -1791 3244 -81 48 -159 53 -230 15z m186 -764
c75 -48 135 -108 239 -237 286 -357 650 -1009 831 -1491 92 -245 123 -448 80
-520 -56 -91 -304 -167 -682 -210 -222 -25 -888 -25 -1108 0 -268 31 -476 78
-587 135 -54 27 -101 83 -110 128 -49 263 407 1258 855 1862 103 138 275 318
331 345 52 25 99 21 151 -12z"/>
<path d="M2445 2932 c-171 -105 -563 -818 -583 -1059 -4 -60 -3 -64 26 -91 35
-33 97 -55 225 -79 132 -25 631 -25 762 -1 128 25 190 45 225 74 26 23 30 32
30 78 0 210 -328 840 -544 1044 -61 58 -90 65 -141 34z"/>
</g>
</svg>
